<?xml version="1.0" encoding="UTF-8"?>
<svg id="Layer_2" data-name="Layer 2" xmlns="http://www.w3.org/2000/svg" viewBox="0 0 41.36 36.81">
  <defs>
    <style>
      .cls-1 {
        fill: #fff;
      }

      .cls-2 {
        fill: #fbb03b;
      }
    </style>
  </defs>
  <g id="Layer_1-2" data-name="Layer 1">
    <g>
      <path class="cls-2" d="M17.45,1.86L.5,31.22c-1.43,2.48,.36,5.59,3.23,5.59H37.63c2.87,0,4.66-3.11,3.23-5.59L23.91,1.86c-1.43-2.48-5.02-2.48-6.45,0Z"/>
      <path class="cls-1" d="M20.68,31.18c-.69,0-1.26-.22-1.71-.67-.45-.45-.67-.98-.67-1.59s.22-1.15,.67-1.58c.45-.42,1.02-.63,1.71-.63s1.29,.21,1.72,.63c.44,.42,.66,.95,.66,1.58s-.22,1.14-.66,1.59c-.44,.45-1.01,.67-1.72,.67Zm-1.54-6.23l-.77-11.34h4.61l-.77,11.34h-3.08Z"/>
    </g>
  </g>
</svg>