<?xml version="1.0" encoding="UTF-8"?>
<svg id="Layer_2" data-name="Layer 2" xmlns="http://www.w3.org/2000/svg" viewBox="0 0 23.89 22.41">
  <defs>
    <style>
      .cls-1 {
        fill: #333;
      }
    </style>
  </defs>
  <g id="Layer_1-2" data-name="Layer 1">
    <g>
      <path class="cls-1" d="M10.45,12.18c0-1.38,0-2.67,0-3.96,0-2.25,0-4.5,0-6.75,0-1.14,1.24-1.83,2.25-1.26,.53,.3,.74,.76,.74,1.32,0,3.4,0,6.81,0,10.21v.44c.14-.13,.23-.2,.32-.28,.79-.74,1.58-1.49,2.38-2.22,.63-.58,1.55-.6,2.14-.06,.62,.57,.62,1.42-.02,2.03-1.74,1.64-3.48,3.27-5.22,4.9-.64,.6-1.52,.6-2.16,0-1.76-1.63-3.51-3.27-5.25-4.92-.63-.59-.62-1.44-.01-2,.59-.55,1.52-.53,2.14,.05,.8,.74,1.58,1.48,2.38,2.22,.09,.08,.18,.16,.33,.29Z"/>
      <path class="cls-1" d="M11.95,22.41c-3.46,0-6.92,0-10.38,0-1.09,0-1.8-.87-1.51-1.81,.17-.54,.7-.94,1.31-.99,.09,0,.17,0,.26,0,6.87,0,13.74,0,20.6,0,.8,0,1.39,.37,1.58,.98,.29,.92-.39,1.8-1.43,1.81-1.16,.02-2.31,0-3.47,0-2.33,0-4.65,0-6.98,0Z"/>
    </g>
  </g>
</svg>