<?xml version="1.0" encoding="UTF-8"?>
<svg id="Layer_2" data-name="Layer 2" xmlns="http://www.w3.org/2000/svg" viewBox="0 0 72.88 72.88">
  <defs>
    <style>
      .cls-1 {
        fill: #185c37;
      }

      .cls-2 {
        fill: #fff;
      }

      .cls-3, .cls-4 {
        fill: #107c41;
      }

      .cls-4 {
        fill-rule: evenodd;
      }

      .cls-5 {
        fill: #33c481;
      }

      .cls-6 {
        fill: none;
      }

      .cls-7 {
        fill: #21a366;
      }
    </style>
  </defs>
  <g id="Layer_1-2" data-name="Layer 1">
    <g>
      <path class="cls-7" d="M45.55,4.55H21.26c-1.67,0-3.04,1.37-3.04,3.04v12.91l27.33,15.94,13.66,5.77,13.66-5.77v-15.94L45.55,4.55Z"/>
      <path class="cls-4" d="M18.22,20.5h27.33v15.94H18.22v-15.94Z"/>
      <path class="cls-5" d="M69.84,4.55h-24.29v15.94h27.33V7.59c0-1.67-1.37-3.04-3.04-3.04h0Z"/>
      <path class="cls-1" d="M45.55,36.44H18.22v28.85c0,1.67,1.37,3.04,3.04,3.04h48.59c1.67,0,3.04-1.37,3.04-3.04v-12.91l-27.33-15.94Z"/>
      <path class="cls-4" d="M45.55,36.44h27.33v15.94h-27.33v-15.94Z"/>
      <g>
        <path d="M37.96,15.94H18.22V59.21h19.74c1.66,0,3.03-1.37,3.04-3.04V18.98c0-1.66-1.37-3.03-3.04-3.04h0Z"/>
        <g>
          <path d="M35.68,18.22H18.22V61.49h17.46c1.66,0,3.03-1.37,3.04-3.04V21.26c0-1.66-1.37-3.03-3.04-3.04h0Z"/>
          <path d="M35.68,18.22H18.22V56.94h17.46c1.66,0,3.03-1.37,3.04-3.04V21.26c0-1.66-1.37-3.03-3.04-3.04h0Z"/>
          <path d="M33.4,18.22h-15.18V56.94h15.18c1.66,0,3.03-1.37,3.04-3.04V21.26c0-1.66-1.37-3.03-3.04-3.04h0Z"/>
        </g>
        <path class="cls-3" d="M3.04,18.22h30.37c1.67,0,3.04,1.37,3.04,3.04v30.37c0,1.67-1.37,3.04-3.04,3.04H3.04c-1.67,0-3.04-1.37-3.04-3.04V21.26c0-1.67,1.37-3.04,3.04-3.04h0Z"/>
        <path class="cls-2" d="M8.05,47.83l7.37-11.42-6.75-11.36h5.43l3.68,7.26c.34,.69,.57,1.2,.7,1.54h.05c.24-.55,.5-1.09,.76-1.6l3.94-7.19h4.99l-6.92,11.29,7.1,11.48h-5.3l-4.26-7.97c-.2-.34-.37-.7-.51-1.06h-.06c-.12,.36-.29,.71-.49,1.03l-4.38,8h-5.34Z"/>
      </g>
      <path class="cls-6" d="M0,0H72.88V72.88H0V0Z"/>
    </g>
  </g>
</svg>