<?xml version="1.0" encoding="UTF-8"?>
<svg id="Layer_2" data-name="Layer 2" xmlns="http://www.w3.org/2000/svg" xmlns:xlink="http://www.w3.org/1999/xlink" viewBox="0 0 185.13 65.91">
  <defs>
    <style>
      .cls-1 {
        fill: #fff;
      }

      .cls-2 {
        fill-rule: evenodd;
      }

      .cls-2, .cls-3, .cls-4 {
        fill: none;
      }

      .cls-2, .cls-4 {
        stroke: #fff;
        stroke-miterlimit: 3.86;
        stroke-width: 1.26px;
      }

      .cls-5 {
        clip-path: url(#clippath-1);
      }

      .cls-6 {
        clip-path: url(#clippath);
      }

      .cls-4 {
        clip-rule: evenodd;
      }

      .cls-7 {
        fill: #b3b3b3;
      }

      .cls-8 {
        fill: #231f20;
      }
    </style>
    <clipPath id="clippath">
      <polygon class="cls-4" points=".89 32.56 32.43 .89 37.58 5.9 43.08 .92 74.79 32.47 42.93 64.5 37.53 59.36 32.43 64.4 .89 32.56"/>
    </clipPath>
    <clipPath id="clippath-1">
      <path class="cls-3" d="M43.11,64.42L11.29,32.74,43.08,.9l31.97,31.7-31.94,31.83ZM31.14,10.47l-6.76,6.77v-6.77s6.76,0,6.76,0Z"/>
    </clipPath>
  </defs>
  <g id="Layer_1-2" data-name="Layer 1">
    <g>
      <path class="cls-7" d="M84.92,52.19h-1.95s.01-1.97,.01-1.97h1.95s-.01,1.97-.01,1.97Zm1.53-1.94h1.95s-.01,1.97-.01,1.97h-1.95s.01-1.97,.01-1.97Zm-5.63,10.59l.05-7.51,2.36,.02-.04,6.79c-.01,2.21,.79,3.32,2.42,3.33,1.63,.01,2.45-1.09,2.46-3.3l.04-6.79,2.36,.02-.05,7.51c-.02,2.96-1.63,4.44-4.83,4.41-3.2-.02-4.79-1.51-4.77-4.48"/>
      <polygon class="cls-7" points="92.92 65.16 92.99 53.41 95.89 53.43 100.31 62.25 100.35 62.25 100.4 53.46 102.66 53.47 102.58 65.23 99.7 65.21 95.26 56.39 95.23 56.39 95.17 65.18 92.92 65.16"/>
      <path class="cls-7" d="M107.23,52.37h-1.95s.01-1.97,.01-1.97h1.95s-.01,1.97-.01,1.97Zm-2.16,1.11l2.36,.02-.08,11.76-2.36-.02,.08-11.76Z"/>
      <polygon class="cls-7" points="112.72 65.29 108.76 53.51 111.28 53.53 114.24 62.78 114.27 62.78 117.31 53.57 119.65 53.58 115.62 65.31 112.72 65.29"/>
      <polygon class="cls-7" points="121.11 65.35 121.18 53.59 128.12 53.64 128.11 55.49 123.53 55.46 123.51 58.36 127.7 58.39 127.69 60.24 123.5 60.21 123.48 63.51 128.09 63.54 128.08 65.39 121.11 65.35"/>
      <path class="cls-7" d="M130.27,65.41l.08-11.75,2.54,.02c1.81,.01,3.05,.14,3.72,.39,1.21,.45,1.81,1.39,1.8,2.83,0,.71-.23,1.31-.67,1.81-.44,.5-1.03,.8-1.77,.9v.03c.51,.05,.93,.46,1.24,1.22l1.86,4.61-2.63-.02-1.39-3.68c-.18-.46-.37-.77-.57-.93-.23-.19-.59-.29-1.06-.29h-.76s-.03,4.88-.03,4.88l-2.36-.02Zm2.42-9.89l-.02,3.17h.77c1.66,.02,2.5-.52,2.5-1.61,0-.63-.26-1.06-.8-1.3-.36-.16-.92-.24-1.68-.25h-.77Z"/>
      <path class="cls-7" d="M147.37,53.98l-.23,1.93c-.77-.34-1.57-.51-2.39-.52-.49,0-.9,.11-1.23,.33-.42,.28-.63,.71-.63,1.29,0,.53,.44,.98,1.32,1.37,1.42,.61,2.25,.99,2.49,1.14,.88,.62,1.32,1.5,1.31,2.64,0,1.21-.45,2.12-1.33,2.74-.78,.53-1.81,.8-3.1,.79-.78,0-1.78-.16-3.01-.47l.23-2.12c.88,.49,1.77,.74,2.66,.74,.52,0,.98-.11,1.38-.35,.48-.29,.71-.68,.72-1.16,0-.6-.44-1.09-1.32-1.49-1.53-.7-2.36-1.08-2.48-1.16-.88-.61-1.32-1.47-1.31-2.58,0-1.22,.44-2.15,1.3-2.77,.73-.54,1.68-.8,2.83-.79,1.03,0,1.97,.15,2.81,.44"/>
      <path class="cls-7" d="M152.16,52.67h-1.95s.01-1.97,.01-1.97h1.95s-.01,1.97-.01,1.97Zm-2.16,1.11l2.36,.02-.08,11.76h-2.36s.08-11.77,.08-11.77Z"/>
      <polygon class="cls-7" points="156.94 65.59 157.01 55.68 153.64 55.66 153.65 53.81 162.75 53.87 162.74 55.72 159.37 55.7 159.3 65.6 156.94 65.59"/>
      <polygon class="cls-7" points="164.17 65.63 164.25 53.88 171.18 53.92 171.17 55.78 166.59 55.74 166.57 58.64 170.77 58.67 170.75 60.52 166.56 60.49 166.54 63.79 171.15 63.82 171.14 65.68 164.17 65.63"/>
      <path class="cls-7" d="M180.14,54.2l-.23,1.93c-.77-.34-1.57-.51-2.39-.52-.49,0-.91,.11-1.23,.33-.42,.28-.63,.71-.63,1.29,0,.53,.44,.98,1.32,1.37,1.42,.61,2.25,.99,2.49,1.14,.88,.62,1.32,1.5,1.31,2.64,0,1.21-.45,2.12-1.33,2.74-.78,.53-1.81,.8-3.1,.79-.77,0-1.78-.16-3.01-.47l.23-2.12c.88,.49,1.77,.74,2.66,.74,.52,0,.98-.11,1.38-.35,.47-.29,.71-.68,.71-1.16,0-.6-.44-1.09-1.32-1.49-1.53-.7-2.36-1.08-2.48-1.16-.88-.61-1.32-1.47-1.31-2.59,0-1.22,.44-2.15,1.3-2.77,.73-.53,1.68-.8,2.83-.79,1.03,0,1.97,.15,2.81,.44"/>
      <path class="cls-7" d="M184.94,52.88h-1.95s.01-1.97,.01-1.97h1.95s-.01,1.97-.01,1.97Zm-2.16,1.12h2.36s-.08,11.77-.08,11.77l-2.36-.02,.08-11.76Z"/>
      <polygon class="cls-7" points="80.99 47.75 81.07 35.99 83.42 36.01 83.39 41.06 87.67 36.04 90.56 36.06 85.69 41.57 90.69 47.81 87.61 47.79 83.42 42.31 83.38 42.31 83.35 47.76 80.99 47.75"/>
      <path class="cls-7" d="M96.26,34.93h-1.95s.01-1.97,.01-1.97h1.95s-.01,1.97-.01,1.97Zm1.53-1.94h1.95s-.01,1.97-.01,1.97h-1.95s.01-1.97,.01-1.97Zm-5.63,10.59l.05-7.51,2.36,.02-.04,6.79c-.01,2.21,.79,3.32,2.42,3.33,1.63,.01,2.45-1.09,2.46-3.3l.04-6.79,2.36,.02-.05,7.51c-.02,2.97-1.63,4.43-4.83,4.41-3.2-.02-4.79-1.51-4.77-4.48"/>
      <polygon class="cls-7" points="104.38 47.9 104.46 36.15 106.81 36.16 106.75 46.07 111.31 46.1 111.3 47.95 104.38 47.9"/>
      <polygon class="cls-7" points="114.94 47.97 115 38.07 111.64 38.05 111.65 36.19 120.74 36.25 120.73 38.11 117.36 38.08 117.3 47.99 114.94 47.97"/>
      <path class="cls-7" d="M126.21,35.13h-1.95s.01-1.97,.01-1.97h1.95s-.01,1.97-.01,1.97Zm1.53-1.94h1.95s-.01,1.97-.01,1.97h-1.95s.01-1.97,.01-1.97Zm-5.63,10.59l.05-7.51,2.36,.02-.04,6.79c-.01,2.21,.79,3.32,2.42,3.33,1.63,.01,2.45-1.09,2.46-3.3l.04-6.79,2.36,.02-.05,7.51c-.02,2.97-1.63,4.44-4.83,4.41-3.2-.02-4.79-1.51-4.77-4.48"/>
      <path class="cls-7" d="M134.12,48.1l.08-11.76,2.54,.02c1.81,.01,3.05,.14,3.72,.4,1.21,.45,1.81,1.39,1.8,2.82,0,.71-.23,1.31-.67,1.81-.44,.5-1.03,.8-1.78,.9v.03c.52,.05,.93,.45,1.24,1.22l1.86,4.61-2.63-.02-1.39-3.68c-.18-.46-.37-.77-.57-.93-.23-.19-.59-.29-1.06-.29h-.76s-.03,4.88-.03,4.88l-2.36-.02Zm2.42-9.89l-.02,3.17h.77c1.66,.02,2.5-.52,2.5-1.61,0-.63-.26-1.06-.8-1.3-.36-.16-.92-.24-1.68-.25h-.77Z"/>
      <path class="cls-7" d="M83.14,17.54h-1.95s.01-1.97,.01-1.97h1.95s-.01,1.97-.01,1.97Zm-2.16,1.12l2.36,.02-.08,11.76-2.36-.02,.08-11.76Z"/>
      <path class="cls-7" d="M92.39,18.95l-.23,1.93c-.77-.34-1.57-.51-2.39-.52-.49,0-.9,.11-1.23,.33-.42,.28-.63,.71-.63,1.29,0,.53,.44,.98,1.32,1.37,1.42,.6,2.25,.99,2.48,1.14,.88,.62,1.32,1.5,1.32,2.64,0,1.21-.45,2.12-1.33,2.74-.78,.53-1.81,.8-3.1,.79-.77,0-1.78-.16-3.01-.47l.23-2.12c.88,.49,1.77,.74,2.66,.74,.52,0,.98-.11,1.38-.35,.47-.29,.71-.67,.71-1.16,0-.6-.44-1.09-1.32-1.49-1.53-.69-2.36-1.08-2.48-1.16-.88-.61-1.32-1.47-1.31-2.59,0-1.22,.44-2.15,1.3-2.77,.73-.53,1.68-.8,2.83-.79,1.03,0,1.97,.15,2.81,.44"/>
      <polygon class="cls-7" points="97.29 30.52 97.35 20.62 93.98 20.59 94 18.74 103.09 18.8 103.08 20.65 99.71 20.63 99.64 30.53 97.29 30.52"/>
      <path class="cls-7" d="M103.3,30.56l4.66-11.73,2.66,.02,4.54,11.79-2.61-.02-.99-2.7-4.76-.03-1.05,2.69-2.44-.02Zm7.61-4.5l-1.67-4.86h-.03l-1.73,4.84,3.44,.02Z"/>
      <polygon class="cls-7" points="116.55 30.64 116.63 18.89 119.53 18.91 123.95 27.73 123.98 27.73 124.04 18.94 126.3 18.95 126.22 30.71 123.34 30.69 118.9 21.87 118.87 21.87 118.81 30.66 116.55 30.64"/>
      <path class="cls-7" d="M128.83,30.72l.08-11.76,4.11,.03c1.01,0,1.83,.19,2.45,.55,.88,.51,1.32,1.34,1.31,2.49,0,.68-.22,1.26-.65,1.73-.43,.47-1,.76-1.71,.88v.03c.8,.08,1.44,.37,1.93,.87,.5,.5,.75,1.11,.74,1.83,0,1.3-.52,2.24-1.53,2.8-.7,.39-1.58,.58-2.63,.57l-4.11-.03Zm2.42-9.89l-.02,2.9h.96c1.48,.02,2.23-.46,2.23-1.41,0-.61-.23-1.02-.72-1.25-.34-.15-.85-.22-1.55-.23h-.91Zm-.03,4.64l-.02,3.4h1.11c1.62,.02,2.43-.52,2.44-1.61,0-1.18-.8-1.77-2.41-1.78h-1.11Z"/>
      <path class="cls-7" d="M139.06,26.55l.05-7.51,2.36,.02-.04,6.79c-.01,2.21,.79,3.32,2.42,3.33,1.63,.01,2.45-1.09,2.46-3.3l.04-6.79,2.36,.02-.05,7.51c-.02,2.96-1.63,4.43-4.83,4.41-3.2-.02-4.79-1.51-4.77-4.48"/>
      <polygon class="cls-7" points="151.28 30.87 151.36 19.12 153.71 19.13 153.65 29.04 158.21 29.07 158.2 30.92 151.28 30.87"/>
      <polygon class="cls-7" points="83.35 13.09 83.42 3.19 80.05 3.16 80.06 1.31 89.16 1.37 89.15 3.22 85.78 3.2 85.71 13.1 83.35 13.09"/>
      <rect class="cls-7" x="90.39" y="10.78" width="2.36" height="2.36" transform="translate(79.01 103.45) rotate(-89.63)"/>
      <path class="cls-7" d="M103.73,11.08l.09,1.97c-1.04,.24-1.94,.36-2.68,.35-1.98-.01-3.52-.51-4.64-1.48-1.2-1.03-1.79-2.51-1.77-4.44,.01-2,.59-3.54,1.75-4.62,1.15-1.09,2.73-1.63,4.74-1.62,.94,0,1.83,.17,2.66,.51l-.18,1.99c-.73-.42-1.57-.63-2.54-.64-1.19,0-2.15,.39-2.87,1.19-.72,.79-1.09,1.81-1.1,3.04,0,1.22,.35,2.23,1.06,3.02,.71,.79,1.68,1.19,2.91,1.2,1.09,0,1.95-.15,2.58-.47"/>
      <rect class="cls-7" x="105.36" y="10.88" width="2.36" height="2.36" transform="translate(93.76 118.51) rotate(-89.62)"/>
      <g>
        <g class="cls-6">
          <g>
            <polygon class="cls-7" points="34.32 3.12 30.41 3.12 32.36 1.16 34.32 3.12"/>
            <polygon class="cls-7" points="29.6 3.94 35.14 3.94 37.1 5.89 27.64 5.89 29.6 3.94"/>
            <polygon class="cls-7" points="26.82 6.71 37.91 6.71 39.87 8.67 24.87 8.67 26.82 6.71"/>
            <polygon class="cls-7" points="24.05 9.48 40.69 9.48 42.64 11.44 22.09 11.44 24.05 9.48"/>
            <polygon class="cls-7" points="21.28 12.25 43.46 12.25 45.42 14.21 19.32 14.21 21.28 12.25"/>
            <polygon class="cls-7" points="18.51 15.03 46.23 15.03 48.19 16.98 16.55 16.98 18.51 15.03"/>
            <polygon class="cls-7" points="15.74 17.8 49 17.8 50.96 19.76 13.78 19.76 15.74 17.8"/>
            <polygon class="cls-7" points="12.96 20.57 51.78 20.57 53.73 22.53 11 22.53 12.96 20.57"/>
            <polygon class="cls-7" points="10.19 23.34 54.55 23.34 56.51 25.3 8.23 25.3 10.19 23.34"/>
            <polygon class="cls-7" points="7.42 26.11 57.32 26.11 59.28 28.07 5.46 28.07 7.42 26.11"/>
            <polygon class="cls-7" points="4.65 28.89 60.09 28.89 62.05 30.84 2.69 30.84 4.65 28.89"/>
            <polygon class="cls-7" points="62.86 31.66 63.84 32.64 62.86 33.62 1.87 33.62 .89 32.64 1.87 31.66 62.86 31.66"/>
            <path class="cls-7" d="M60.09,36.39l1.96-1.96-1.97,1.96h.01Zm-57.41-1.96H62.04l-1.95,1.96H4.65l-1.96-1.96Z"/>
            <path class="cls-8" d="M62.04,34.43l-1.95,1.96,1.95-1.96Z"/>
            <path class="cls-7" d="M57.32,39.16l1.96-1.96-1.97,1.96h.01Zm-51.86-1.96H59.27l-1.95,1.96H7.42l-1.96-1.96Z"/>
            <path class="cls-8" d="M59.27,37.2l-1.95,1.96,1.95-1.96Z"/>
            <path class="cls-7" d="M54.55,41.93l1.96-1.96-1.97,1.96h.01Zm-46.32-1.96H56.5l-1.95,1.96H10.19l-1.96-1.96Z"/>
            <path class="cls-8" d="M56.5,39.97l-1.95,1.96,1.95-1.96Z"/>
            <path class="cls-7" d="M51.78,44.7l1.96-1.96-1.97,1.96h.01Zm-40.77-1.96H53.72l-1.95,1.96H12.96l-1.96-1.96Z"/>
            <path class="cls-8" d="M53.72,42.74l-1.95,1.96,1.95-1.96Z"/>
            <path class="cls-7" d="M49,47.48l1.96-1.96-1.97,1.96h.01Zm-35.23-1.96H50.95l-1.95,1.96H15.74l-1.96-1.96Z"/>
            <path class="cls-8" d="M50.95,45.52l-1.95,1.96,1.95-1.96Z"/>
            <path class="cls-7" d="M46.23,50.25l1.96-1.96-1.97,1.96h.01Zm-29.68-1.96h31.63l-1.95,1.96H18.51l-1.96-1.96Z"/>
            <path class="cls-8" d="M48.18,48.29l-1.95,1.96,1.95-1.96Z"/>
            <path class="cls-7" d="M43.46,53.02l1.96-1.96-1.97,1.96h.01Zm-24.14-1.96h26.09l-1.95,1.96H21.28l-1.96-1.96Z"/>
            <path class="cls-8" d="M45.41,51.06l-1.95,1.96,1.95-1.96Z"/>
            <path class="cls-7" d="M40.69,55.79l1.96-1.96-1.97,1.96h.01Zm-18.59-1.96h20.54l-1.95,1.96H24.05l-1.96-1.96Z"/>
            <path class="cls-8" d="M42.63,53.83l-1.95,1.96,1.95-1.96Z"/>
            <path class="cls-7" d="M37.91,58.56l1.96-1.96-1.97,1.96h.01Zm-13.05-1.96h15l-1.95,1.96h-11.09l-1.96-1.96Z"/>
            <path class="cls-8" d="M39.86,56.61l-1.95,1.96,1.95-1.96Z"/>
            <path class="cls-7" d="M35.14,61.34l1.96-1.96-1.97,1.96h.01Zm-7.5-1.96h9.45l-1.95,1.96h-5.54l-1.96-1.96Z"/>
            <path class="cls-8" d="M37.09,59.38l-1.95,1.96,1.95-1.96Z"/>
            <path class="cls-7" d="M34.33,62.15l-1.96,1.96,1.96-1.96Zm-3.92,0h3.91l-1.95,1.96-1.96-1.96Z"/>
            <g>
              <path class="cls-7" d="M43.11,64.42L11.29,32.74,43.08,.9l31.97,31.7-31.94,31.83ZM31.14,10.47l-6.76,6.77v-6.77s6.76,0,6.76,0Z"/>
              <g>
                <g class="cls-5">
                  <g>
                    <path class="cls-1" d="M42.95,20.55l-.17-19.47,2.66,2.65-.21,32.34c0,4.78,3.88,8.66,8.66,8.66s8.66-3.88,8.66-8.66v-15.32s11.87,11.8,11.87,11.8l-21.04,21.04L31.64,31.86l11.31-11.31Z"/>
                    <polygon class="cls-1" points="31.14 52.58 24.39 45.83 24.39 19.57 31.14 12.78 31.14 52.58"/>
                  </g>
                </g>
                <polygon class="cls-3" points="31.14 10.47 24.39 17.24 24.39 10.47 31.14 10.47"/>
              </g>
            </g>
          </g>
        </g>
        <polygon class="cls-2" points=".89 32.56 32.43 .89 37.58 5.9 43.08 .92 74.79 32.47 42.93 64.5 37.53 59.36 32.43 64.4 .89 32.56"/>
      </g>
    </g>
  </g>
</svg>