<?xml version="1.0" encoding="UTF-8"?>
<svg id="Layer_2" data-name="Layer 2" xmlns="http://www.w3.org/2000/svg" viewBox="0 0 104.93 32.1">
  <defs>
    <style>
      .cls-1 {
        fill: #fff;
      }

      .cls-2 {
        fill: #c1272d;
      }
    </style>
  </defs>
  <g id="Layer_1-2" data-name="Layer 1">
    <g>
      <rect class="cls-2" x="0" y="0" width="104.93" height="32.1" rx="16.05" ry="16.05"/>
      <g>
        <path class="cls-1" d="M30.44,21.56V10.23h2.62v9.19h5.68v2.13h-8.3Z"/>
        <path class="cls-1" d="M44.1,21.68c-.93,0-1.75-.19-2.47-.58-.72-.39-1.28-.92-1.7-1.59s-.62-1.44-.62-2.3,.21-1.65,.62-2.32,.98-1.2,1.7-1.58c.72-.38,1.54-.57,2.47-.57s1.74,.19,2.46,.57,1.29,.91,1.7,1.58,.61,1.45,.61,2.33-.2,1.63-.61,2.3-.98,1.21-1.7,1.59c-.72,.39-1.54,.58-2.46,.58Zm0-2.07c.42,0,.8-.1,1.13-.29,.33-.19,.6-.47,.79-.83,.19-.36,.29-.79,.29-1.29s-.1-.94-.29-1.29c-.19-.36-.46-.63-.79-.83s-.71-.29-1.13-.29-.8,.1-1.13,.29-.6,.47-.8,.83c-.2,.36-.3,.79-.3,1.29s.1,.92,.3,1.29c.2,.36,.47,.64,.8,.83,.33,.19,.71,.29,1.13,.29Z"/>
        <path class="cls-1" d="M54.26,21.13c-.81,0-1.54-.17-2.19-.53s-1.17-.84-1.57-1.47-.59-1.37-.59-2.21,.2-1.59,.59-2.22,.92-1.12,1.57-1.46c.65-.34,1.38-.52,2.19-.52,.73,0,1.38,.15,1.94,.45,.56,.3,1,.75,1.31,1.37,.31,.62,.47,1.42,.47,2.39s-.16,1.75-.47,2.37-.75,1.08-1.31,1.38-1.21,.45-1.94,.45Zm.39,3.69c-.82,0-1.61-.1-2.37-.3-.76-.2-1.39-.5-1.9-.9l1-1.81c.37,.3,.83,.54,1.4,.72s1.12,.27,1.67,.27c.9,0,1.54-.2,1.95-.6,.4-.4,.61-.99,.61-1.78v-1.31l.16-2.18-.03-2.2v-1.88h2.39v7.25c0,1.62-.42,2.81-1.26,3.58-.84,.76-2.05,1.15-3.62,1.15Zm.11-5.76c.44,0,.83-.09,1.18-.27,.34-.18,.61-.43,.81-.75s.29-.7,.29-1.12-.1-.81-.29-1.12c-.19-.32-.46-.57-.81-.74-.35-.18-.74-.27-1.18-.27s-.84,.09-1.18,.27c-.35,.18-.62,.43-.82,.74-.2,.32-.3,.69-.3,1.12s.1,.79,.3,1.12c.2,.32,.47,.57,.82,.75,.34,.18,.74,.27,1.18,.27Z"/>
        <path class="cls-1" d="M63.14,11.64c-.46,0-.84-.13-1.13-.4-.29-.27-.44-.6-.44-1s.15-.73,.44-1,.67-.4,1.13-.4,.84,.13,1.13,.38c.29,.25,.44,.58,.44,.98,0,.42-.14,.77-.43,1.04-.29,.28-.67,.41-1.14,.41Zm-1.26,9.92V12.85h2.52v8.7h-2.52Z"/>
        <path class="cls-1" d="M72.04,12.72c.69,0,1.31,.14,1.85,.41,.54,.28,.97,.7,1.29,1.26,.31,.57,.47,1.29,.47,2.18v4.98h-2.52v-4.59c0-.7-.15-1.22-.46-1.55-.31-.33-.74-.5-1.3-.5-.4,0-.76,.08-1.08,.25s-.57,.42-.74,.77c-.18,.35-.27,.79-.27,1.33v4.3h-2.52V12.85h2.41v2.41l-.45-.73c.31-.58,.76-1.03,1.34-1.34,.58-.31,1.25-.47,1.99-.47Z"/>
      </g>
    </g>
  </g>
</svg>