<?xml version="1.0" encoding="UTF-8"?>
<svg id="Layer_2" data-name="Layer 2" xmlns="http://www.w3.org/2000/svg" viewBox="0 0 29.43 29.47">
  <defs>
    <style>
      .cls-1 {
        fill: #4d4d4d;
      }
    </style>
  </defs>
  <g id="Layer_1-2" data-name="Layer 1">
    <g>
      <path class="cls-1" d="M2.31,14.75c0,3.28,.04,6.56-.02,9.84-.03,1.56,1.1,2.59,2.57,2.58,3.69-.04,7.39,0,11.08-.01,1.25,0,2.18-.66,2.42-1.77,.1-.46,.05-.95,.06-1.42,0-.46-.02-.92,0-1.38,.04-.71,.55-1.2,1.21-1.17,.65,.03,1.08,.51,1.08,1.23,0,.77,0,1.53,0,2.3-.03,2.42-1.96,4.46-4.38,4.49-3.99,.05-7.97,.05-11.96,0C1.98,29.41,.02,27.38,.02,24.98c-.02-6.84-.02-13.67,0-20.51C.02,2.1,1.98,.07,4.36,.04c4-.05,8-.05,12,0,2.42,.03,4.34,2.08,4.36,4.51,0,.75,0,1.5,0,2.25,0,.76-.43,1.24-1.1,1.26-.68,.02-1.18-.49-1.2-1.24-.02-.7,0-1.41,0-2.12-.01-1.41-.95-2.38-2.36-2.38-3.8-.01-7.6-.01-11.41,0-1.41,0-2.34,.98-2.35,2.39,0,3.34,0,6.68,0,10.03Z"/>
      <path class="cls-1" d="M26.09,15.93c-.16,0-.33,0-.49,0-4.34,0-8.67,0-13.01,0-.44,0-.82-.08-1.1-.45-.56-.73-.11-1.73,.84-1.85,.15-.02,.31-.01,.46-.01,4.26,0,8.52,0,12.78,0h.62c-.57-.57-1.06-1.06-1.55-1.55-.14-.14-.29-.28-.4-.44-.32-.47-.25-1.08,.16-1.47,.41-.38,1.07-.46,1.47-.08,1.02,.97,2.05,1.94,2.97,3.01,.85,.99,.75,2.64-.15,3.59-.87,.93-1.78,1.82-2.69,2.7-.48,.47-1.16,.45-1.61,0-.47-.46-.48-1.13,.01-1.64,.56-.58,1.16-1.13,1.74-1.7-.02-.04-.04-.08-.06-.13Z"/>
    </g>
  </g>
</svg>