<?xml version="1.0" encoding="UTF-8"?>
<svg id="Layer_2" data-name="Layer 2" xmlns="http://www.w3.org/2000/svg" viewBox="0 0 191.95 195.9">
  <defs>
    <style>
      .cls-1 {
        fill: #c1272d;
      }
    </style>
  </defs>
  <g id="Layer_1-2" data-name="Layer 1">
    <g>
      <path class="cls-1" d="M71.64,143.27c-.55,0-1.09,0-1.64-.02-19.13-.43-36.95-8.28-50.17-22.11C-7.47,92.59-6.45,47.16,22.09,19.86,35.92,6.64,54.08-.41,73.2,.02c19.13,.43,36.95,8.28,50.17,22.11,13.22,13.83,20.27,31.98,19.84,51.11-.43,19.13-8.28,36.95-22.11,50.17-13.43,12.84-30.94,19.86-49.47,19.86Zm-.07-122.64c-13.19,0-25.66,5-35.22,14.14-20.33,19.44-21.05,51.79-1.61,72.11,9.42,9.85,22.1,15.44,35.72,15.74,13.61,.3,26.54-4.71,36.39-14.13,9.85-9.42,15.44-22.1,15.74-35.72,.3-13.62-4.71-26.54-14.13-36.39h0c-9.42-9.85-22.1-15.44-35.72-15.74-.39,0-.78-.01-1.17-.01Z"/>
      <rect class="cls-1" x="138.95" y="101.65" width="20.63" height="101.37" transform="translate(-63.94 146.89) rotate(-44.12)"/>
    </g>
  </g>
</svg>