<?xml version="1.0" encoding="UTF-8"?>
<svg id="Layer_2" data-name="Layer 2" xmlns="http://www.w3.org/2000/svg" viewBox="0 0 427.8 95.84">
  <defs>
    <style>
      .cls-1 {
        fill: #e6e6e6;
      }
    </style>
  </defs>
  <g id="Layer_1-2" data-name="Layer 1">
    <g>
      <g>
        <g>
          <path class="cls-1" d="M38.48,17.51c-1.05-1.62-2.55-2.87-4.48-3.74-1.94-.87-4.24-1.3-6.91-1.3H14.15v29.88h6.92v-8.24h6.02c2.67,0,4.98-.43,6.91-1.3,1.93-.87,3.43-2.11,4.48-3.74,1.05-1.62,1.58-3.54,1.58-5.76s-.53-4.18-1.58-5.81Zm-7,9.6c-1.05,.91-2.65,1.37-4.78,1.37h-5.63v-10.37h5.63c2.13,0,3.73,.46,4.78,1.37,1.05,.91,1.58,2.19,1.58,3.84s-.53,2.89-1.58,3.8Z"/>
          <path class="cls-1" d="M14.15,83.85v-29.88h6.92v23.95l19-.17v6.1H14.15Z"/>
          <circle class="cls-1" cx="69.06" cy="27.41" r="15.31"/>
          <path class="cls-1" d="M69.06,59.35c5.07,0,9.19,4.12,9.19,9.19s-4.12,9.19-9.19,9.19-9.19-4.12-9.19-9.19,4.12-9.19,9.19-9.19m0-6.11c-8.45,0-15.31,6.85-15.31,15.31s6.85,15.31,15.31,15.31,15.31-6.85,15.31-15.31-6.85-15.31-15.31-15.31h0Z"/>
        </g>
        <path class="cls-1" d="M95.84,95.84H0V0H95.84V95.84ZM5.51,90.33H90.33V5.51H5.51V90.33Z"/>
      </g>
      <g>
        <path class="cls-1" d="M127.13,21.97l-20.76,46.58h11.04l4.15-9.98h21.59l4.13,9.98h11.31l-20.83-46.58h-10.65Zm-2.16,28.41l7.41-17.83,7.38,17.83h-14.8Z"/>
        <path class="cls-1" d="M192.1,33.91c-2.24-1.13-4.78-1.7-7.62-1.7-3.06,0-5.79,.64-8.18,1.93-1.42,.77-2.63,1.75-3.66,2.91v-4.3h-9.91v35.8h10.38v-17.7c0-2.22,.37-4.04,1.1-5.46,.73-1.42,1.75-2.47,3.06-3.16,1.31-.69,2.78-1.03,4.42-1.03,2.31,0,4.09,.69,5.36,2.06,1.26,1.38,1.9,3.5,1.9,6.39v18.9h10.38v-20.49c0-3.64-.64-6.62-1.93-8.95-1.29-2.33-3.05-4.06-5.29-5.19Z"/>
        <path class="cls-1" d="M235.85,36.07c-3.02-2.57-7.25-3.86-12.71-3.86-2.84,0-5.63,.38-8.38,1.13-2.75,.75-5.1,1.82-7.05,3.19l3.73,7.25c1.29-1.02,2.85-1.83,4.69-2.43,1.84-.6,3.71-.9,5.62-.9,2.79,0,4.87,.62,6.22,1.86,1.35,1.24,2.03,2.97,2.03,5.19h-8.25c-3.64,0-6.59,.46-8.85,1.36-2.26,.91-3.92,2.16-4.96,3.76-1.04,1.6-1.56,3.46-1.56,5.59s.53,3.88,1.6,5.52c1.06,1.64,2.6,2.94,4.59,3.89,2,.95,4.39,1.43,7.19,1.43,3.15,0,5.72-.6,7.72-1.8,1.35-.81,2.41-1.88,3.19-3.2v4.47h9.71v-20.43c0-5.46-1.51-9.47-4.52-12.04Zm-8.85,24.78c-1.38,.82-2.93,1.23-4.66,1.23-1.82,0-3.25-.39-4.29-1.16-1.04-.78-1.56-1.83-1.56-3.16,0-1.2,.45-2.2,1.36-2.99,.91-.8,2.58-1.2,5.02-1.2h7.12v3.66c-.62,1.6-1.62,2.81-2.99,3.63Z"/>
        <rect class="cls-1" x="249.75" y="19.17" width="10.38" height="49.37"/>
        <path class="cls-1" d="M285.22,57.06l-10.05-24.31h-10.71l15.5,36.1-.13,.3c-.71,1.6-1.5,2.74-2.36,3.43-.86,.69-2.03,1.03-3.49,1.03-1.02,0-2.05-.2-3.09-.6-1.04-.4-1.96-.95-2.76-1.66l-3.79,7.39c1.15,1.02,2.64,1.82,4.46,2.4,1.82,.58,3.66,.86,5.52,.86,2.17,0,4.16-.33,5.96-1,1.8-.67,3.44-1.82,4.92-3.46,1.49-1.64,2.81-3.9,3.96-6.79l16.17-37.99h-9.98l-10.11,24.31Z"/>
        <path class="cls-1" d="M326.67,60.83c-1.38,0-2.46-.41-3.26-1.23-.8-.82-1.2-1.98-1.2-3.49v-14.57h8.92v-7.98h-8.92v-8.72h-10.38v8.72h-5.52v7.98h5.52v14.71c0,4.26,1.17,7.46,3.53,9.61,2.35,2.15,5.63,3.23,9.85,3.23,1.6,0,3.14-.19,4.62-.57,1.49-.38,2.76-.94,3.83-1.7l-2.79-7.32c-1.15,.89-2.55,1.33-4.19,1.33Z"/>
        <rect class="cls-1" x="339.51" y="32.75" width="10.38" height="35.8"/>
        <path class="cls-1" d="M344.7,16.18c-1.91,0-3.46,.56-4.66,1.66-1.2,1.11-1.8,2.48-1.8,4.13s.6,3.02,1.8,4.12c1.2,1.11,2.75,1.66,4.66,1.66s3.52-.57,4.69-1.7c1.17-1.13,1.76-2.56,1.76-4.29,0-1.64-.6-2.98-1.8-4.03-1.2-1.04-2.75-1.56-4.66-1.56Z"/>
        <path class="cls-1" d="M371.98,41.93c1.42-.8,3.02-1.2,4.79-1.2,1.64,0,3.16,.4,4.56,1.2,1.4,.8,2.56,2.04,3.49,3.73l8.05-4.32c-1.33-2.93-3.39-5.18-6.19-6.75-2.79-1.57-6.08-2.36-9.85-2.36s-7.3,.79-10.31,2.36c-3.02,1.57-5.38,3.75-7.09,6.52-1.71,2.77-2.56,5.96-2.56,9.55s.85,6.72,2.56,9.51c1.71,2.79,4.07,4.98,7.09,6.55,3.02,1.57,6.45,2.36,10.31,2.36s7.05-.79,9.85-2.36c2.79-1.57,4.86-3.8,6.19-6.69l-8.05-4.39c-.93,1.73-2.1,2.98-3.49,3.76-1.4,.78-2.92,1.16-4.56,1.16-1.77,0-3.37-.4-4.79-1.2-1.42-.8-2.54-1.93-3.36-3.39-.82-1.46-1.23-3.24-1.23-5.32s.41-3.86,1.23-5.32c.82-1.46,1.94-2.6,3.36-3.39Z"/>
        <path class="cls-1" d="M426.61,52.74c-.8-1.26-1.83-2.26-3.09-2.99-1.26-.73-2.67-1.3-4.23-1.7-1.55-.4-3.09-.7-4.62-.9s-2.94-.43-4.23-.7c-1.29-.27-2.32-.62-3.09-1.06-.78-.44-1.16-1.11-1.16-2,0-.98,.53-1.77,1.6-2.4,1.06-.62,2.75-.93,5.06-.93,1.64,0,3.34,.19,5.09,.57,1.75,.38,3.49,1.08,5.22,2.1l3.46-7.39c-1.69-1.02-3.79-1.8-6.32-2.33s-5.01-.8-7.45-.8c-3.46,0-6.43,.5-8.92,1.5-2.48,1-4.38,2.36-5.69,4.09-1.31,1.73-1.96,3.73-1.96,5.99,0,2.04,.39,3.7,1.16,4.99,.78,1.29,1.81,2.31,3.09,3.06,1.29,.75,2.71,1.32,4.26,1.7,1.55,.38,3.09,.68,4.62,.9,1.53,.22,2.94,.44,4.23,.67,1.29,.22,2.32,.54,3.09,.96,.78,.42,1.16,1.05,1.16,1.9,0,1.02-.5,1.82-1.5,2.4-1,.58-2.69,.87-5.09,.87-2.17,0-4.38-.32-6.62-.96-2.24-.64-4.18-1.47-5.82-2.5l-3.46,7.45c1.64,1.11,3.87,2.03,6.69,2.76,2.82,.73,5.76,1.1,8.82,1.1,3.59,0,6.64-.49,9.15-1.46,2.51-.98,4.42-2.32,5.76-4.03,1.33-1.71,2-3.67,2-5.89,0-2.04-.4-3.69-1.2-4.96Z"/>
      </g>
    </g>
  </g>
</svg>