<?xml version="1.0" encoding="UTF-8"?>
<svg id="Layer_2" data-name="Layer 2" xmlns="http://www.w3.org/2000/svg" viewBox="0 0 427.44 95.76">
  <defs>
    <style>
      .cls-1 {
        fill: #c1272d;
      }
    </style>
  </defs>
  <g id="Layer_1-2" data-name="Layer 1">
    <g>
      <g>
        <g>
          <path class="cls-1" d="M38.45,17.49c-1.05-1.62-2.55-2.86-4.48-3.73-1.93-.87-4.24-1.3-6.91-1.3H14.14v29.86h6.91v-8.23h6.01c2.67,0,4.98-.43,6.91-1.3,1.93-.87,3.43-2.11,4.48-3.73,1.05-1.62,1.58-3.54,1.58-5.76s-.53-4.18-1.58-5.8Zm-6.99,9.6c-1.05,.91-2.64,1.36-4.78,1.36h-5.63v-10.36h5.63c2.13,0,3.72,.46,4.78,1.37,1.05,.91,1.58,2.19,1.58,3.84s-.53,2.89-1.58,3.8Z"/>
          <path class="cls-1" d="M14.14,83.78v-29.86h6.91v23.93l18.98-.17v6.09H14.14Z"/>
          <circle class="cls-1" cx="69" cy="27.39" r="15.29"/>
          <path class="cls-1" d="M69,59.3c5.06,0,9.18,4.12,9.18,9.18s-4.12,9.18-9.18,9.18-9.18-4.12-9.18-9.18,4.12-9.18,9.18-9.18m0-6.11c-8.45,0-15.29,6.85-15.29,15.29s6.85,15.29,15.29,15.29,15.29-6.85,15.29-15.29-6.85-15.29-15.29-15.29h0Z"/>
        </g>
        <path class="cls-1" d="M95.76,95.76H0V0H95.76V95.76ZM5.51,90.25H90.25V5.51H5.51V90.25Z"/>
      </g>
      <g>
        <path class="cls-1" d="M127.02,21.95l-20.74,46.54h11.04l4.15-9.97h21.57l4.13,9.97h11.3l-20.81-46.54h-10.64Zm-2.16,28.39l7.41-17.81,7.38,17.81h-14.78Z"/>
        <path class="cls-1" d="M191.94,33.88c-2.24-1.13-4.78-1.7-7.61-1.7-3.06,0-5.78,.64-8.18,1.93-1.42,.76-2.63,1.75-3.66,2.9v-4.3h-9.91v35.77h10.37v-17.68c0-2.22,.37-4.03,1.1-5.45,.73-1.42,1.75-2.47,3.06-3.16,1.31-.69,2.78-1.03,4.42-1.03,2.3,0,4.09,.69,5.35,2.06,1.26,1.37,1.89,3.5,1.89,6.38v18.88h10.37v-20.48c0-3.63-.64-6.62-1.93-8.94-1.29-2.33-3.05-4.06-5.29-5.19Z"/>
        <path class="cls-1" d="M235.65,36.04c-3.01-2.57-7.25-3.86-12.7-3.86-2.84,0-5.63,.38-8.38,1.13-2.75,.75-5.1,1.82-7.05,3.19l3.72,7.25c1.29-1.02,2.85-1.83,4.69-2.43,1.84-.6,3.71-.9,5.62-.9,2.79,0,4.86,.62,6.22,1.86,1.35,1.24,2.03,2.97,2.03,5.19h-8.24c-3.63,0-6.58,.45-8.84,1.36-2.26,.91-3.91,2.16-4.95,3.76-1.04,1.6-1.56,3.46-1.56,5.58s.53,3.88,1.6,5.52c1.06,1.64,2.59,2.94,4.59,3.89,1.99,.95,4.39,1.43,7.18,1.43,3.15,0,5.72-.6,7.71-1.79,1.35-.81,2.41-1.88,3.19-3.2v4.46h9.71v-20.41c0-5.45-1.51-9.46-4.52-12.03Zm-8.84,24.76c-1.37,.82-2.93,1.23-4.65,1.23-1.82,0-3.25-.39-4.29-1.16-1.04-.77-1.56-1.83-1.56-3.16,0-1.2,.45-2.19,1.36-2.99,.91-.8,2.58-1.2,5.02-1.2h7.11v3.66c-.62,1.6-1.62,2.8-2.99,3.62Z"/>
        <rect class="cls-1" x="249.54" y="19.16" width="10.37" height="49.33"/>
        <path class="cls-1" d="M284.98,57.01l-10.04-24.29h-10.7l15.48,36.07-.13,.3c-.71,1.6-1.5,2.74-2.36,3.42-.86,.69-2.03,1.03-3.49,1.03-1.02,0-2.05-.2-3.09-.6-1.04-.4-1.96-.95-2.76-1.66l-3.79,7.38c1.15,1.02,2.64,1.82,4.45,2.39,1.82,.58,3.66,.86,5.52,.86,2.17,0,4.16-.33,5.95-1,1.8-.66,3.43-1.82,4.92-3.46,1.48-1.64,2.8-3.9,3.96-6.78l16.15-37.96h-9.97l-10.1,24.29Z"/>
        <path class="cls-1" d="M326.39,60.77c-1.37,0-2.46-.41-3.26-1.23-.8-.82-1.2-1.98-1.2-3.49v-14.56h8.91v-7.98h-8.91v-8.71h-10.37v8.71h-5.52v7.98h5.52v14.69c0,4.25,1.17,7.46,3.52,9.61,2.35,2.15,5.63,3.22,9.84,3.22,1.6,0,3.14-.19,4.62-.56,1.48-.38,2.76-.94,3.82-1.7l-2.79-7.31c-1.15,.89-2.55,1.33-4.19,1.33Z"/>
        <path class="cls-1" d="M344.41,16.17c-1.91,0-3.46,.55-4.65,1.66-1.2,1.11-1.79,2.48-1.79,4.12s.6,3.01,1.79,4.12c1.2,1.11,2.75,1.66,4.65,1.66s3.51-.56,4.69-1.7c1.17-1.13,1.76-2.56,1.76-4.29,0-1.64-.6-2.98-1.79-4.02-1.2-1.04-2.75-1.56-4.65-1.56Z"/>
        <rect class="cls-1" x="339.22" y="32.72" width="10.37" height="35.77"/>
        <path class="cls-1" d="M371.67,41.89c1.42-.8,3.01-1.2,4.79-1.2,1.64,0,3.16,.4,4.55,1.2,1.4,.8,2.56,2.04,3.49,3.72l8.04-4.32c-1.33-2.93-3.39-5.17-6.18-6.75-2.79-1.57-6.07-2.36-9.84-2.36s-7.29,.79-10.3,2.36c-3.01,1.57-5.37,3.75-7.08,6.52-1.71,2.77-2.56,5.95-2.56,9.54s.85,6.71,2.56,9.51c1.71,2.79,4.07,4.98,7.08,6.55,3.01,1.57,6.45,2.36,10.3,2.36s7.05-.79,9.84-2.36c2.79-1.57,4.85-3.8,6.18-6.68l-8.04-4.39c-.93,1.73-2.09,2.98-3.49,3.76-1.4,.78-2.92,1.16-4.55,1.16-1.77,0-3.37-.4-4.79-1.2-1.42-.8-2.54-1.93-3.36-3.39-.82-1.46-1.23-3.23-1.23-5.32s.41-3.86,1.23-5.32c.82-1.46,1.94-2.59,3.36-3.39Z"/>
        <path class="cls-1" d="M426.25,52.7c-.8-1.26-1.83-2.26-3.09-2.99-1.26-.73-2.67-1.3-4.22-1.69-1.55-.4-3.09-.7-4.62-.9s-2.94-.43-4.22-.7c-1.29-.27-2.32-.62-3.09-1.06-.78-.44-1.16-1.11-1.16-1.99,0-.97,.53-1.77,1.6-2.39,1.06-.62,2.75-.93,5.05-.93,1.64,0,3.33,.19,5.09,.56,1.75,.38,3.49,1.08,5.22,2.09l3.46-7.38c-1.69-1.02-3.79-1.8-6.32-2.33s-5.01-.8-7.45-.8c-3.46,0-6.43,.5-8.91,1.5-2.48,1-4.38,2.36-5.68,4.09-1.31,1.73-1.96,3.72-1.96,5.98,0,2.04,.39,3.7,1.16,4.99,.78,1.29,1.81,2.3,3.09,3.06,1.29,.75,2.7,1.32,4.25,1.7,1.55,.38,3.09,.68,4.62,.9,1.53,.22,2.94,.44,4.22,.66,1.28,.22,2.32,.54,3.09,.96,.77,.42,1.16,1.05,1.16,1.89,0,1.02-.5,1.82-1.5,2.39-1,.58-2.69,.86-5.09,.86-2.17,0-4.38-.32-6.61-.96-2.24-.64-4.18-1.47-5.82-2.49l-3.46,7.45c1.64,1.11,3.87,2.03,6.68,2.76,2.81,.73,5.75,1.1,8.81,1.1,3.59,0,6.64-.49,9.14-1.46,2.5-.97,4.42-2.32,5.75-4.02,1.33-1.71,1.99-3.67,1.99-5.88,0-2.04-.4-3.69-1.2-4.95Z"/>
      </g>
    </g>
  </g>
</svg>