<?xml version="1.0" encoding="UTF-8"?>
<svg id="Layer_2" data-name="Layer 2" xmlns="http://www.w3.org/2000/svg" viewBox="0 0 201.92 41.96">
  <defs>
    <style>
      .cls-1 {
        fill: #c1272d;
      }

      .cls-2 {
        fill: #e6e6e6;
      }
    </style>
  </defs>
  <g id="Layer_1-2" data-name="Layer 1">
    <g>
      <rect class="cls-1" x="0" y="0" width="201.92" height="41.96" rx="20.98" ry="20.98"/>
      <g>
        <path class="cls-2" d="M37.87,27.44c-.91,0-1.77-.12-2.6-.36-.83-.24-1.5-.56-2-.95l.89-1.97c.49,.35,1.06,.63,1.72,.85,.66,.22,1.33,.33,2.01,.33,.52,0,.94-.05,1.25-.15s.55-.25,.7-.43c.15-.18,.23-.39,.23-.63,0-.3-.12-.54-.36-.72s-.55-.32-.94-.44c-.39-.11-.82-.22-1.29-.32-.47-.1-.94-.23-1.41-.38-.47-.15-.9-.35-1.29-.58-.39-.24-.7-.55-.95-.94-.24-.39-.36-.88-.36-1.49,0-.65,.17-1.24,.53-1.77,.35-.53,.88-.96,1.58-1.28,.71-.32,1.59-.48,2.66-.48,.71,0,1.41,.08,2.1,.25,.69,.17,1.3,.42,1.83,.75l-.81,1.99c-.53-.3-1.06-.53-1.58-.67s-1.05-.22-1.55-.22-.92,.06-1.25,.18c-.32,.12-.56,.27-.7,.46-.14,.19-.21,.41-.21,.66,0,.29,.12,.53,.36,.7s.55,.32,.94,.43c.39,.11,.82,.22,1.29,.32,.47,.11,.94,.23,1.41,.37,.47,.14,.9,.33,1.29,.57,.39,.24,.7,.55,.95,.94,.24,.39,.36,.88,.36,1.47,0,.64-.18,1.22-.53,1.75-.36,.53-.89,.95-1.59,1.28-.71,.32-1.6,.48-2.68,.48Z"/>
        <path class="cls-2" d="M48.61,27.37c-.99,0-1.86-.19-2.61-.58-.75-.39-1.33-.92-1.74-1.59-.41-.67-.61-1.44-.61-2.3s.2-1.65,.61-2.32,.96-1.2,1.66-1.58c.7-.38,1.49-.57,2.38-.57s1.62,.18,2.3,.54,1.23,.88,1.63,1.55c.4,.67,.6,1.48,.6,2.42,0,.1,0,.21-.02,.33s-.02,.24-.03,.35h-7.07v-1.47h5.74l-.97,.44c0-.45-.09-.85-.27-1.18-.18-.33-.44-.6-.76-.78s-.7-.28-1.13-.28-.81,.09-1.14,.28-.58,.45-.77,.79c-.18,.34-.28,.74-.28,1.2v.39c0,.47,.11,.89,.32,1.25,.21,.36,.51,.64,.89,.83s.83,.28,1.35,.28c.46,0,.87-.07,1.22-.21,.35-.14,.67-.35,.96-.63l1.34,1.46c-.4,.45-.9,.8-1.5,1.04-.6,.24-1.3,.36-2.09,.36Z"/>
        <path class="cls-2" d="M54.5,27.25V15.24h2.52v12h-2.52Z"/>
        <path class="cls-2" d="M63.69,27.37c-.99,0-1.86-.19-2.61-.58-.75-.39-1.33-.92-1.74-1.59-.41-.67-.61-1.44-.61-2.3s.2-1.65,.61-2.32,.96-1.2,1.66-1.58c.7-.38,1.49-.57,2.38-.57s1.62,.18,2.3,.54,1.23,.88,1.63,1.55c.4,.67,.6,1.48,.6,2.42,0,.1,0,.21-.02,.33s-.02,.24-.03,.35h-7.07v-1.47h5.74l-.97,.44c0-.45-.09-.85-.27-1.18-.18-.33-.44-.6-.76-.78s-.7-.28-1.13-.28-.81,.09-1.14,.28-.58,.45-.77,.79c-.18,.34-.28,.74-.28,1.2v.39c0,.47,.11,.89,.32,1.25,.21,.36,.51,.64,.89,.83s.83,.28,1.35,.28c.46,0,.87-.07,1.22-.21,.35-.14,.67-.35,.96-.63l1.34,1.46c-.4,.45-.9,.8-1.5,1.04-.6,.24-1.3,.36-2.09,.36Z"/>
        <path class="cls-2" d="M73.78,27.37c-.94,0-1.77-.19-2.51-.57s-1.31-.91-1.72-1.59c-.42-.68-.62-1.45-.62-2.31s.21-1.65,.62-2.32c.42-.67,.99-1.2,1.72-1.58s1.57-.57,2.51-.57,1.71,.19,2.39,.57c.68,.38,1.18,.93,1.5,1.64l-1.96,1.05c-.23-.41-.51-.71-.85-.91-.34-.19-.71-.29-1.11-.29-.43,0-.82,.1-1.16,.29-.35,.19-.62,.47-.82,.83-.2,.36-.3,.79-.3,1.29s.1,.94,.3,1.29c.2,.36,.47,.63,.82,.82,.34,.19,.73,.29,1.16,.29,.4,0,.77-.09,1.11-.28,.34-.19,.62-.49,.85-.91l1.96,1.07c-.32,.7-.83,1.24-1.5,1.62-.68,.38-1.48,.57-2.39,.57Z"/>
        <path class="cls-2" d="M78.23,20.68v-1.94h6.03v1.94h-6.03Zm4.59,6.7c-1.02,0-1.82-.26-2.39-.78-.57-.52-.86-1.3-.86-2.34v-7.63h2.52v7.6c0,.37,.1,.65,.29,.85,.19,.2,.46,.3,.79,.3,.4,0,.74-.11,1.02-.32l.68,1.78c-.26,.18-.57,.32-.93,.41-.36,.09-.74,.14-1.12,.14Z"/>
        <path class="cls-2" d="M93.65,25.14h6.16v2.1h-8.77V15.92h8.56v2.1h-5.95v7.12Zm-.19-4.66h5.45v2.04h-5.45v-2.04Z"/>
        <path class="cls-2" d="M100.51,27.25l3.9-5.11-.05,1.39-3.74-4.98h2.83l2.36,3.25-1.07,.03,2.44-3.28h2.69l-3.75,4.93v-1.36l3.88,5.13h-2.86l-2.47-3.46,1.05,.15-2.46,3.32h-2.75Z"/>
        <path class="cls-2" d="M115.17,27.37c-.94,0-1.77-.19-2.51-.57s-1.31-.91-1.72-1.59c-.42-.68-.62-1.45-.62-2.31s.21-1.65,.62-2.32c.42-.67,.99-1.2,1.72-1.58s1.57-.57,2.51-.57,1.71,.19,2.39,.57c.68,.38,1.18,.93,1.5,1.64l-1.96,1.05c-.23-.41-.51-.71-.85-.91-.34-.19-.71-.29-1.11-.29-.43,0-.82,.1-1.16,.29-.35,.19-.62,.47-.82,.83-.2,.36-.3,.79-.3,1.29s.1,.94,.3,1.29c.2,.36,.47,.63,.82,.82,.34,.19,.73,.29,1.16,.29,.4,0,.77-.09,1.11-.28,.34-.19,.62-.49,.85-.91l1.96,1.07c-.32,.7-.83,1.24-1.5,1.62-.68,.38-1.48,.57-2.39,.57Z"/>
        <path class="cls-2" d="M124.73,27.37c-.99,0-1.86-.19-2.61-.58-.75-.39-1.33-.92-1.74-1.59-.41-.67-.61-1.44-.61-2.3s.2-1.65,.61-2.32,.96-1.2,1.66-1.58c.7-.38,1.49-.57,2.38-.57s1.62,.18,2.3,.54,1.23,.88,1.63,1.55c.4,.67,.6,1.48,.6,2.42,0,.1,0,.21-.02,.33s-.02,.24-.03,.35h-7.07v-1.47h5.74l-.97,.44c0-.45-.09-.85-.27-1.18-.18-.33-.44-.6-.76-.78s-.7-.28-1.13-.28-.81,.09-1.14,.28-.58,.45-.77,.79c-.18,.34-.28,.74-.28,1.2v.39c0,.47,.11,.89,.32,1.25,.21,.36,.51,.64,.89,.83s.83,.28,1.35,.28c.46,0,.87-.07,1.22-.21,.35-.14,.67-.35,.96-.63l1.34,1.46c-.4,.45-.9,.8-1.5,1.04-.6,.24-1.3,.36-2.09,.36Z"/>
        <path class="cls-2" d="M130.61,27.25V15.24h2.52v12h-2.52Z"/>
        <path class="cls-2" d="M142.86,27.25h-2.62V15.92h8.56v2.1h-5.94v9.22Zm-.19-6.23h5.43v2.1h-5.43v-2.1Z"/>
        <path class="cls-2" d="M151.65,17.33c-.46,0-.84-.13-1.13-.4s-.44-.6-.44-1,.15-.73,.44-1c.29-.27,.67-.4,1.13-.4s.84,.13,1.13,.38c.29,.25,.44,.58,.44,.98,0,.42-.14,.77-.43,1.04-.29,.27-.67,.41-1.14,.41Zm-1.26,9.92v-8.7h2.52v8.7h-2.52Z"/>
        <path class="cls-2" d="M155.26,27.25V15.24h2.52v12h-2.52Z"/>
        <path class="cls-2" d="M164.45,27.37c-.99,0-1.86-.19-2.61-.58-.75-.39-1.33-.92-1.74-1.59-.41-.67-.61-1.44-.61-2.3s.2-1.65,.61-2.32,.96-1.2,1.66-1.58c.7-.38,1.49-.57,2.38-.57s1.62,.18,2.3,.54,1.23,.88,1.63,1.55c.4,.67,.6,1.48,.6,2.42,0,.1,0,.21-.02,.33s-.02,.24-.03,.35h-7.07v-1.47h5.74l-.97,.44c0-.45-.09-.85-.27-1.18-.18-.33-.44-.6-.76-.78s-.7-.28-1.13-.28-.81,.09-1.14,.28-.58,.45-.77,.79c-.18,.34-.28,.74-.28,1.2v.39c0,.47,.11,.89,.32,1.25,.21,.36,.51,.64,.89,.83s.83,.28,1.35,.28c.46,0,.87-.07,1.22-.21,.35-.14,.67-.35,.96-.63l1.34,1.46c-.4,.45-.9,.8-1.5,1.04-.6,.24-1.3,.36-2.09,.36Z"/>
      </g>
    </g>
  </g>
</svg>