<?xml version="1.0" encoding="UTF-8"?>
<svg id="Layer_2" data-name="Layer 2" xmlns="http://www.w3.org/2000/svg" viewBox="0 0 166.26 215.9">
  <defs>
    <style>
      .cls-1 {
        fill: #c1272d;
      }
    </style>
  </defs>
  <g id="Layer_1-2" data-name="Layer 1">
    <g>
      <path class="cls-1" d="M0,0C28.55,0,57.11,0,85.66,0c.19,.1,.36,.23,.56,.28,10.26,2.35,15.89,9.35,15.89,19.82,0,11.81,0,23.62,0,35.44,0,.74,0,1.47,0,2.27,14.89,0,29.44,0,44,0,12.08,0,20.14,8.02,20.14,20.05,0,45.28,0,90.56,0,135.84v2.2H0V0ZM31.75,184.26h102.7V95.9H31.75v88.36Z"/>
      <path class="cls-1" d="M114.84,44.99V22.06c8.58,7.73,16.87,15.2,25.46,22.93h-25.46Z"/>
      <path class="cls-1" d="M44.41,120.96v-12.41h32.23v12.41H44.41Z"/>
      <path class="cls-1" d="M89.56,120.96v-12.41h32.23v12.41h-32.23Z"/>
      <path class="cls-1" d="M76.7,133.88v12.4H44.44v-12.4h32.26Z"/>
      <path class="cls-1" d="M121.83,146.33h-32.22v-12.43h32.22v12.43Z"/>
      <path class="cls-1" d="M44.4,171.6v-12.4h32.23v12.4H44.4Z"/>
      <path class="cls-1" d="M89.55,171.6v-12.4h32.23v12.4h-32.23Z"/>
    </g>
  </g>
</svg>