<?xml version="1.0" encoding="UTF-8"?>
<svg id="Layer_2" data-name="Layer 2" xmlns="http://www.w3.org/2000/svg" viewBox="0 0 258.75 41.96">
  <defs>
    <style>
      .cls-1 {
        fill: #c1272d;
      }

      .cls-2 {
        fill: #f2f2f2;
      }
    </style>
  </defs>
  <g id="Layer_1-2" data-name="Layer 1">
    <g>
      <rect class="cls-1" x="0" y="0" width="258.75" height="41.96" rx="20.98" ry="20.98"/>
      <g>
        <path class="cls-2" d="M108.69,26.98c-1.39,0-2.48-.39-3.26-1.16-.78-.77-1.18-1.88-1.18-3.32v-5.49h2.27v5.4c0,.93,.19,1.61,.57,2.02s.92,.62,1.61,.62,1.23-.21,1.61-.62,.57-1.08,.57-2.02v-5.4h2.24v5.49c0,1.44-.39,2.54-1.18,3.32-.78,.78-1.87,1.16-3.26,1.16Z"/>
        <path class="cls-2" d="M115.22,29.53v-10.25h2.09v1.54l-.04,2.24,.14,2.23v4.24h-2.18Zm4.45-2.6c-.63,0-1.19-.14-1.67-.42-.48-.28-.85-.71-1.11-1.28-.27-.57-.4-1.3-.4-2.18s.13-1.62,.38-2.18,.62-.99,1.09-1.27c.48-.28,1.04-.42,1.71-.42,.71,0,1.35,.16,1.91,.48s1.01,.77,1.34,1.35c.33,.58,.5,1.26,.5,2.04s-.17,1.48-.5,2.06c-.33,.58-.78,1.03-1.34,1.34s-1.2,.48-1.91,.48Zm-.38-1.79c.36,0,.69-.08,.97-.25,.29-.17,.51-.41,.69-.72,.17-.31,.26-.68,.26-1.11s-.09-.81-.26-1.12c-.17-.31-.4-.55-.69-.71-.28-.17-.61-.25-.97-.25s-.69,.08-.98,.25c-.29,.17-.52,.41-.69,.71-.17,.31-.25,.68-.25,1.12s.08,.8,.25,1.11c.17,.31,.4,.55,.69,.72,.29,.17,.62,.25,.98,.25Z"/>
        <path class="cls-2" d="M124.87,26.81v-10.39h2.18v10.39h-2.18Z"/>
        <path class="cls-2" d="M132.67,26.93c-.8,0-1.51-.17-2.13-.5-.62-.34-1.11-.8-1.47-1.38-.36-.58-.54-1.25-.54-1.99s.18-1.43,.54-2.01c.36-.58,.85-1.04,1.47-1.37,.62-.33,1.33-.5,2.13-.5s1.5,.17,2.13,.5c.62,.33,1.12,.79,1.47,1.37,.35,.58,.53,1.25,.53,2.02s-.18,1.41-.53,1.99c-.36,.58-.85,1.04-1.47,1.38s-1.33,.5-2.13,.5Zm0-1.79c.36,0,.69-.08,.98-.25,.29-.17,.52-.41,.69-.72,.17-.31,.25-.68,.25-1.11s-.08-.81-.25-1.12c-.17-.31-.4-.55-.69-.71-.29-.17-.62-.25-.98-.25s-.69,.08-.98,.25c-.29,.17-.52,.41-.69,.71-.17,.31-.26,.68-.26,1.12s.09,.8,.26,1.11c.17,.31,.4,.55,.69,.72,.29,.17,.62,.25,.98,.25Z"/>
        <path class="cls-2" d="M140.46,26.93c-.59,0-1.09-.1-1.51-.3-.42-.2-.74-.47-.97-.82-.22-.35-.34-.73-.34-1.16s.11-.84,.33-1.18c.22-.34,.57-.6,1.04-.79,.48-.19,1.1-.29,1.86-.29h2v1.27h-1.76c-.51,0-.87,.08-1.06,.25s-.29,.38-.29,.63c0,.28,.11,.5,.33,.67,.22,.16,.52,.24,.9,.24s.69-.09,.98-.26c.29-.17,.5-.43,.63-.76l.34,1.01c-.16,.49-.45,.85-.87,1.11s-.96,.38-1.62,.38Zm2.3-.11v-1.47l-.14-.32v-2.63c0-.47-.14-.83-.43-1.09-.28-.26-.72-.39-1.31-.39-.4,0-.8,.06-1.18,.19-.39,.13-.72,.3-.99,.51l-.78-1.53c.41-.29,.91-.51,1.48-.67,.58-.16,1.17-.24,1.76-.24,1.15,0,2.04,.27,2.67,.81s.95,1.39,.95,2.53v4.3h-2.04Z"/>
        <path class="cls-2" d="M150.06,26.93c-.71,0-1.35-.16-1.92-.48s-1.02-.77-1.35-1.35c-.33-.58-.5-1.26-.5-2.04s.17-1.48,.5-2.06c.33-.58,.78-1.03,1.35-1.34s1.21-.48,1.92-.48c.63,0,1.19,.14,1.67,.42,.48,.28,.84,.7,1.11,1.27,.26,.57,.39,1.3,.39,2.18s-.13,1.6-.38,2.18-.61,1-1.08,1.28c-.47,.28-1.04,.42-1.7,.42Zm.38-1.79c.35,0,.68-.08,.97-.25s.52-.41,.69-.72c.17-.31,.26-.68,.26-1.11s-.09-.81-.26-1.12c-.17-.31-.4-.55-.69-.71s-.61-.25-.97-.25-.69,.08-.98,.25-.52,.41-.69,.71c-.17,.31-.26,.68-.26,1.12s.09,.8,.26,1.11c.17,.31,.4,.55,.69,.72s.62,.25,.98,.25Zm1.97,1.68v-1.54l.04-2.24-.14-2.23v-4.38h2.18v10.39h-2.09Z"/>
      </g>
    </g>
  </g>
</svg>